# xmcd
#
# Track frame offsets:
#	150
#	13650
#	29102
#	45227
#	68702
#	82205
#	95630
#	108905
#	124882
#	135607
#	152257
#	164710
#	181285
#	192985
#	205585
#
# Disc length: 2938 seconds
#
# Revision: 0
# Processed by: cddbd v1.5PL3 Copyright (c) Steve Scherf et al.
# Submitted via: audiograbber 1.83.01
#
DISCID=cb0b780f
DTITLE=Ezequiel Peña - 15 Exitazos
DYEAR=1900
DGENRE=Latin
TTITLE0=Yo Vendo Unos Ojos Verdes
TTITLE1=Mujer Te Sigo Amando Locamente
TTITLE2=Prenda Del Alma
TTITLE3=El Corrido De Manuel Juarez
TTITLE4=Cuando El Destino Se Cobra
TTITLE5=Cuando Salgo A Los Campos
TTITLE6=Mujeres
TTITLE7=Me Ha Fallado El Amor
TTITLE8=Verdad Que Duele
TTITLE9=Cuatro Velas
TTITLE10=Caballo De Patas Blancas
TTITLE11=Ebrio De Amor
TTITLE12=El Perro Negro
TTITLE13=La Mucura
TTITLE14=Prefiero Partir
EXTD=
EXTT0=
EXTT1=
EXTT2=
EXTT3=
EXTT4=
EXTT5=
EXTT6=
EXTT7=
EXTT8=
EXTT9=
EXTT10=
EXTT11=
EXTT12=
EXTT13=
EXTT14=
PLAYORDER=
